<?xml version="1.0"?><mxGraphModel><root><mxCell id="0" /><mxCell id="1" parent="0" /><mxCell id="edge1" style="rounded=1;html=1;exitX=0.948;exitY=0;entryX=0.0607;entryY=1;jettySize=auto;curved=0;endArrow=block;dashed=0;endFill=1;" parent="1" edge="1" source="node1" target="node2"><mxGeometry as="geometry" relative="1"><Array as="points"><mxPoint x="116.44" y="1727.27" /><mxPoint x="131.3" y="1676.0" /><mxPoint x="144.94" y="1634.6200000000001" /></Array></mxGeometry></mxCell><mxCell id="edge7" style="rounded=1;html=1;exitX=0.5;exitY=0;entryX=0.5;entryY=1;jettySize=auto;curved=0;endArrow=block;dashed=0;endFill=1;" parent="1" edge="1" source="node2" target="node21"><mxGeometry as="geometry" relative="1" /></mxCell><mxCell id="edge2" style="rounded=1;html=1;exitX=0.5;exitY=0;entryX=0.5;entryY=1;jettySize=auto;curved=0;endArrow=block;dashed=0;endFill=1;" parent="1" edge="1" source="node3" target="node2"><mxGeometry as="geometry" relative="1" /></mxCell><mxCell id="edge3" style="rounded=1;html=1;exitX=0.5;exitY=0;entryX=0.5;entryY=1;jettySize=auto;curved=0;endArrow=block;dashed=0;endFill=1;" parent="1" edge="1" source="node4" target="node5"><mxGeometry as="geometry" relative="1" /></mxCell><mxCell id="edge4" style="rounded=1;html=1;exitX=0.5;exitY=0;entryX=0.5;entryY=1;jettySize=auto;curved=0;endArrow=block;dashed=0;endFill=1;" parent="1" edge="1" source="node11" target="node12"><mxGeometry as="geometry" relative="1" /></mxCell><mxCell id="edge5" style="rounded=1;html=1;exitX=0.5;exitY=0;entryX=0.311;entryY=1;jettySize=auto;curved=0;endArrow=block;dashed=0;endFill=1;" parent="1" edge="1" source="node16" target="node6"><mxGeometry as="geometry" relative="1" /></mxCell><mxCell id="edge6" style="rounded=1;html=1;exitX=0.5;exitY=0;entryX=0.689;entryY=1;jettySize=auto;curved=0;endArrow=block;dashed=0;endFill=1;" parent="1" edge="1" source="node20" target="node6"><mxGeometry as="geometry" relative="1" /></mxCell><mxCell id="edge8" style="rounded=1;html=1;exitX=0.5;exitY=0;entryX=0;entryY=1;jettySize=auto;curved=0;endArrow=block;dashed=0;endFill=1;" parent="1" edge="1" source="node21" target="node5"><mxGeometry as="geometry" relative="1"><Array as="points"><mxPoint x="215.91" y="1016.5900000000001" /><mxPoint x="213.99" y="963.6000000000001" /><mxPoint x="213.99" y="770.6000000000001" /><mxPoint x="221.95" y="729.0600000000002" /></Array></mxGeometry></mxCell><mxCell id="edge9" style="rounded=1;html=1;exitX=1;exitY=0.319;entryX=0;entryY=1;jettySize=auto;curved=0;endArrow=block;dashed=0;endFill=1;" parent="1" edge="1" source="node21" target="node22"><mxGeometry as="geometry" relative="1"><Array as="points"><mxPoint x="294.0" y="1078.0700000000002" /><mxPoint x="508.3" y="963.6000000000001" /><mxPoint x="511.74" y="961.47" /></Array></mxGeometry></mxCell><mxCell id="edge12" style="rounded=1;html=1;exitX=0.1;exitY=0;entryX=1;entryY=0.991;jettySize=auto;curved=0;endArrow=block;dashed=0;endFill=1;" parent="1" edge="1" source="node22" target="node5"><mxGeometry as="geometry" relative="1"><Array as="points"><mxPoint x="541.88" y="779.1700000000001" /><mxPoint x="492.3" y="717.8000000000002" /><mxPoint x="488.05" y="711.19" /></Array></mxGeometry></mxCell><mxCell id="edge10" style="rounded=1;html=1;exitX=0.5;exitY=0;entryX=0.5;entryY=1;jettySize=auto;curved=0;endArrow=block;dashed=0;endFill=1;" parent="1" edge="1" source="node22" target="node15"><mxGeometry as="geometry" relative="1"><Array as="points"><mxPoint x="637.84" y="779.3500000000001" /><mxPoint x="640.99" y="735.8000000000002" /><mxPoint x="688.91" y="510.95000000000005" /></Array></mxGeometry></mxCell><mxCell id="edge11" style="rounded=1;html=1;exitX=0.751;exitY=0;entryX=0.5;entryY=1;jettySize=auto;curved=0;endArrow=block;dashed=0;endFill=1;" parent="1" edge="1" source="node22" target="node15"><mxGeometry as="geometry" relative="1"><Array as="points"><mxPoint x="702.17" y="779.4100000000001" /><mxPoint x="713.3" y="752.6000000000001" /><mxPoint x="744.59" y="511.5300000000002" /></Array></mxGeometry></mxCell><mxCell id="edge13" style="rounded=1;html=1;exitX=0.279;exitY=0;entryX=0.931;entryY=1;jettySize=auto;curved=0;endArrow=block;dashed=0;endFill=1;" parent="1" edge="1" source="node23" target="node2"><mxGeometry as="geometry" relative="1"><Array as="points"><mxPoint x="366.78" y="1844.41" /><mxPoint x="311.3" y="1676.0" /><mxPoint x="296.15" y="1634.1000000000001" /></Array></mxGeometry></mxCell><mxCell id="node1" value="&lt;p style='margin:0px;text-align:center;margin-top:4px;;font-size:10.0px;font-family:Times New Roman,serif;color:#000000;'&gt;_thread.RLock&lt;/p&gt;&lt;hr size='1'/&gt;&lt;p style='margin:0px;text-align:start;margin-left:4px;;font-size:10.0px;font-family:Times New Roman,serif;color:#000000;'&gt;__delattr__()&lt;br/&gt;__dir__()&lt;br/&gt;__enter__()&lt;br/&gt;__eq__()&lt;br/&gt;__exit__()&lt;br/&gt;__format__()&lt;br/&gt;__ge__()&lt;br/&gt;__getattribute__()&lt;br/&gt;__gt__()&lt;br/&gt;__hash__()&lt;br/&gt;__init__()&lt;br/&gt;__le__()&lt;br/&gt;__lt__()&lt;br/&gt;__ne__()&lt;br/&gt;__reduce__()&lt;br/&gt;__reduce_ex__()&lt;br/&gt;__repr__()&lt;br/&gt;__setattr__()&lt;br/&gt;__sizeof__()&lt;br/&gt;__str__()&lt;br/&gt;_acquire_restore()&lt;br/&gt;_is_owned()&lt;br/&gt;_release_save()&lt;br/&gt;acquire()&lt;br/&gt;release()&lt;/p&gt;" style="verticalAlign=top;align=left;overflow=fill;html=1;rounded=0;shadow=0;comic=0;labelBackgroundColor=none;strokeColor=black;strokeWidth=1;fillColor=#ffffff;" parent="1" vertex="1"><mxGeometry x="4.0" y="1727.3000000000002" width="118.61" height="476.7999999999997" as="geometry" /></mxCell><mxCell id="node2" value="&lt;p style='margin:0px;text-align:center;margin-top:4px;;font-size:10.0px;font-family:Times New Roman,serif;color:#000000;'&gt;threading.Condition&lt;/p&gt;&lt;hr size='1'/&gt;&lt;p style='margin:0px;text-align:start;margin-left:4px;;font-size:10.0px;font-family:Times New Roman,serif;color:#000000;'&gt;_acquire_restore&lt;br/&gt;_is_owned&lt;br/&gt;_lock : NoneType&lt;br/&gt;_release_save&lt;br/&gt;_waiters&lt;br/&gt;acquire&lt;br/&gt;notifyAll&lt;br/&gt;release&lt;/p&gt;&lt;hr size='1'/&gt;&lt;p style='margin:0px;text-align:start;margin-left:4px;;font-size:10.0px;font-family:Times New Roman,serif;color:#000000;'&gt;__enter__()&lt;br/&gt;__exit__()&lt;br/&gt;__init__(lock)&lt;br/&gt;__repr__()&lt;br/&gt;_acquire_restore(x)&lt;br/&gt;_is_owned()&lt;br/&gt;_release_save()&lt;br/&gt;notify(n)&lt;br/&gt;notify_all()&lt;br/&gt;wait(timeout)&lt;br/&gt;wait_for(predicate, timeout)&lt;/p&gt;" style="verticalAlign=top;align=left;overflow=fill;html=1;rounded=0;shadow=0;comic=0;labelBackgroundColor=none;strokeColor=black;strokeWidth=1;fillColor=#ffffff;" parent="1" vertex="1"><mxGeometry x="134.39" y="1262.7" width="173.82" height="360.0" as="geometry" /></mxCell><mxCell id="node21" value="&lt;p style='margin:0px;text-align:center;margin-top:4px;;font-size:10.0px;font-family:Times New Roman,serif;color:#000000;'&gt;threading.Event&lt;/p&gt;&lt;hr size='1'/&gt;&lt;p style='margin:0px;text-align:start;margin-left:4px;;font-size:10.0px;font-family:Times New Roman,serif;color:#000000;'&gt;_cond&lt;br/&gt;_flag : bool&lt;br/&gt;isSet&lt;/p&gt;&lt;hr size='1'/&gt;&lt;p style='margin:0px;text-align:start;margin-left:4px;;font-size:10.0px;font-family:Times New Roman,serif;color:#000000;'&gt;__init__()&lt;br/&gt;_reset_internal_locks()&lt;br/&gt;clear()&lt;br/&gt;is_set()&lt;br/&gt;set()&lt;br/&gt;wait(timeout)&lt;/p&gt;" style="verticalAlign=top;align=left;overflow=fill;html=1;rounded=0;shadow=0;comic=0;labelBackgroundColor=none;strokeColor=black;strokeWidth=1;fillColor=#ffffff;" parent="1" vertex="1"><mxGeometry x="148.77" y="1016.9000000000001" width="145.05999999999997" height="192.0" as="geometry" /></mxCell><mxCell id="node3" value="&lt;p style='margin:0px;text-align:center;margin-top:4px;;font-size:10.0px;font-family:Times New Roman,serif;color:#000000;'&gt;collections.deque&lt;/p&gt;&lt;hr size='1'/&gt;&lt;p style='margin:0px;text-align:start;margin-left:4px;;font-size:10.0px;font-family:Times New Roman,serif;color:#000000;'&gt;iterable : list&lt;br/&gt;maxlen : int&lt;/p&gt;&lt;hr size='1'/&gt;&lt;p style='margin:0px;text-align:start;margin-left:4px;;font-size:10.0px;font-family:Times New Roman,serif;color:#000000;'&gt;__add__(other)&lt;br/&gt;__bool__()&lt;br/&gt;__contains__(o)&lt;br/&gt;__copy__()&lt;br/&gt;__delitem__(index)&lt;br/&gt;__getitem__(index)&lt;br/&gt;__iadd__(other)&lt;br/&gt;__imul__(other)&lt;br/&gt;__init__(iterable, maxlen)&lt;br/&gt;__iter__()&lt;br/&gt;__len__()&lt;br/&gt;__mul__(other)&lt;br/&gt;__nonzero__()&lt;br/&gt;__reversed__()&lt;br/&gt;__rmul__(other)&lt;br/&gt;__setitem__(index, value)&lt;br/&gt;append(x)&lt;br/&gt;appendleft(x)&lt;br/&gt;clear()&lt;br/&gt;copy()&lt;br/&gt;count(x)&lt;br/&gt;extend(iterable)&lt;br/&gt;extendleft(iterable)&lt;br/&gt;index(x, start, end)&lt;br/&gt;insert(x, i)&lt;br/&gt;pop()&lt;br/&gt;popleft()&lt;br/&gt;remove(value)&lt;br/&gt;reverse()&lt;br/&gt;rotate(n)&lt;/p&gt;" style="verticalAlign=top;align=left;overflow=fill;html=1;rounded=0;shadow=0;comic=0;labelBackgroundColor=none;strokeColor=black;strokeWidth=1;fillColor=#ffffff;" parent="1" vertex="1"><mxGeometry x="140.21" y="1676.5" width="162.17999999999998" height="578.4000000000001" as="geometry" /></mxCell><mxCell id="node4" value="&lt;p style='margin:0px;text-align:center;margin-top:4px;;font-size:10.0px;font-family:Times New Roman,serif;color:#000000;'&gt;colorama.ansitowin32.StreamWrapper&lt;/p&gt;&lt;hr size='1'/&gt;&lt;p style='margin:0px;text-align:start;margin-left:4px;;font-size:10.0px;font-family:Times New Roman,serif;color:#000000;'&gt;__convertor&lt;br/&gt;__wrapped&lt;br/&gt;closed&lt;/p&gt;&lt;hr size='1'/&gt;&lt;p style='margin:0px;text-align:start;margin-left:4px;;font-size:10.0px;font-family:Times New Roman,serif;color:#000000;'&gt;__enter__()&lt;br/&gt;__exit__()&lt;br/&gt;__getattr__(name)&lt;br/&gt;__init__(wrapped, converter)&lt;br/&gt;isatty()&lt;br/&gt;write(text)&lt;/p&gt;" style="verticalAlign=top;align=left;overflow=fill;html=1;rounded=0;shadow=0;comic=0;labelBackgroundColor=none;strokeColor=black;strokeWidth=1;fillColor=#ffffff;" parent="1" vertex="1"><mxGeometry x="267.23" y="771.1000000000001" width="232.14999999999998" height="192.0" as="geometry" /></mxCell><mxCell id="node5" value="&lt;p style='margin:0px;text-align:center;margin-top:4px;;font-size:10.0px;font-family:Times New Roman,serif;color:#000000;'&gt;threading.Thread&lt;/p&gt;&lt;hr size='1'/&gt;&lt;p style='margin:0px;text-align:start;margin-left:4px;;font-size:10.0px;font-family:Times New Roman,serif;color:#000000;'&gt;_args : tuple&lt;br/&gt;_daemonic : NoneType&lt;br/&gt;_ident : NoneType&lt;br/&gt;_initialized : bool&lt;br/&gt;_initialized : bool&lt;br/&gt;_invoke_excepthook&lt;br/&gt;_is_stopped : bool&lt;br/&gt;_kwargs : dict, NoneType&lt;br/&gt;_name : str&lt;br/&gt;_native_id : NoneType&lt;br/&gt;_started&lt;br/&gt;_stderr&lt;br/&gt;_target : NoneType&lt;br/&gt;_tstate_lock : NoneType&lt;br/&gt;daemon&lt;br/&gt;daemon&lt;br/&gt;ident&lt;br/&gt;name&lt;br/&gt;name&lt;br/&gt;native_id&lt;/p&gt;&lt;hr size='1'/&gt;&lt;p style='margin:0px;text-align:start;margin-left:4px;;font-size:10.0px;font-family:Times New Roman,serif;color:#000000;'&gt;__init__(group, target, name, args, kwargs)&lt;br/&gt;__repr__()&lt;br/&gt;_bootstrap()&lt;br/&gt;_bootstrap_inner()&lt;br/&gt;_delete()&lt;br/&gt;_reset_internal_locks(is_alive)&lt;br/&gt;_set_ident()&lt;br/&gt;_set_native_id()&lt;br/&gt;_set_tstate_lock()&lt;br/&gt;_stop()&lt;br/&gt;_wait_for_tstate_lock(block, timeout)&lt;br/&gt;getName()&lt;br/&gt;isAlive()&lt;br/&gt;isDaemon()&lt;br/&gt;is_alive()&lt;br/&gt;join(timeout)&lt;br/&gt;run()&lt;br/&gt;setDaemon(daemonic)&lt;br/&gt;setName(name)&lt;br/&gt;start()&lt;/p&gt;" style="verticalAlign=top;align=left;overflow=fill;html=1;rounded=0;shadow=0;comic=0;labelBackgroundColor=none;strokeColor=black;strokeWidth=1;fillColor=#ffffff;" parent="1" vertex="1"><mxGeometry x="224.0" y="4.5" width="258.6" height="712.8000000000002" as="geometry" /></mxCell><mxCell id="node6" value="&lt;p style='margin:0px;text-align:center;margin-top:4px;;font-size:10.0px;font-family:Times New Roman,serif;color:#000000;'&gt;common.AbstractInputSelector&lt;/p&gt;&lt;hr size='1'/&gt;&lt;p style='margin:0px;text-align:start;margin-left:4px;;font-size:10.0px;font-family:Times New Roman,serif;color:#000000;'&gt;_device_id_registry : list&lt;br/&gt;_input_type_registry : list&lt;br/&gt;chage_cb&lt;br/&gt;device_dropdown : NoneType&lt;br/&gt;device_list : list&lt;br/&gt;input_item_dropdowns : list&lt;br/&gt;main_layout&lt;br/&gt;valid_types&lt;/p&gt;&lt;hr size='1'/&gt;&lt;p style='margin:0px;text-align:start;margin-left:4px;;font-size:10.0px;font-family:Times New Roman,serif;color:#000000;'&gt;__init__(change_cb, valid_types, parent)&lt;br/&gt;_create_device_dropdown()&lt;br/&gt;_create_input_dropdown()&lt;br/&gt;_device_identifier(device)&lt;br/&gt;_execute_callback()&lt;br/&gt;_format_device_name(device)&lt;br/&gt;_initialize()&lt;br/&gt;_update_device(index)&lt;br/&gt;get_selection()&lt;br/&gt;set_selection(input_type, device_id, input_id)&lt;/p&gt;" style="verticalAlign=top;align=left;overflow=fill;html=1;rounded=0;shadow=0;comic=0;labelBackgroundColor=none;strokeColor=black;strokeWidth=1;fillColor=#ffffff;" parent="1" vertex="1"><mxGeometry x="639.0" y="1271.1000000000001" width="272.61" height="343.20000000000005" as="geometry" /></mxCell><mxCell id="node7" value="&lt;p style='margin:0px;text-align:center;margin-top:4px;;font-size:10.0px;font-family:Times New Roman,serif;color:#000000;'&gt;common.AbstractModel&lt;/p&gt;&lt;hr size='1'/&gt;&lt;p style='margin:0px;text-align:start;margin-left:4px;;font-size:10.0px;font-family:Times New Roman,serif;color:#000000;'&gt;data_changed&lt;/p&gt;&lt;hr size='1'/&gt;&lt;p style='margin:0px;text-align:start;margin-left:4px;;font-size:10.0px;font-family:Times New Roman,serif;color:#000000;'&gt;__init__(parent)&lt;br/&gt;data(index)&lt;br/&gt;rows()&lt;/p&gt;" style="verticalAlign=top;align=left;overflow=fill;html=1;rounded=0;shadow=0;comic=0;labelBackgroundColor=none;strokeColor=black;strokeWidth=1;fillColor=#ffffff;" parent="1" vertex="1"><mxGeometry x="1100.07" y="1911.7" width="152.47000000000003" height="108.0" as="geometry" /></mxCell><mxCell id="node8" value="&lt;p style='margin:0px;text-align:center;margin-top:4px;;font-size:10.0px;font-family:Times New Roman,serif;color:#000000;'&gt;common.AbstractView&lt;/p&gt;&lt;hr size='1'/&gt;&lt;p style='margin:0px;text-align:start;margin-left:4px;;font-size:10.0px;font-family:Times New Roman,serif;color:#000000;'&gt;item_selected&lt;br/&gt;model : NoneType&lt;/p&gt;&lt;hr size='1'/&gt;&lt;p style='margin:0px;text-align:start;margin-left:4px;;font-size:10.0px;font-family:Times New Roman,serif;color:#000000;'&gt;__init__(parent)&lt;br/&gt;_model_changed()&lt;br/&gt;redraw()&lt;br/&gt;select_item(index)&lt;br/&gt;set_model(model)&lt;/p&gt;" style="verticalAlign=top;align=left;overflow=fill;html=1;rounded=0;shadow=0;comic=0;labelBackgroundColor=none;strokeColor=black;strokeWidth=1;fillColor=#ffffff;" parent="1" vertex="1"><mxGeometry x="1270.18" y="1886.5" width="146.25" height="158.4000000000001" as="geometry" /></mxCell><mxCell id="node9" value="&lt;p style='margin:0px;text-align:center;margin-top:4px;;font-size:10.0px;font-family:Times New Roman,serif;color:#000000;'&gt;common.ActionSelector&lt;/p&gt;&lt;hr size='1'/&gt;&lt;p style='margin:0px;text-align:start;margin-left:4px;;font-size:10.0px;font-family:Times New Roman,serif;color:#000000;'&gt;action_added&lt;br/&gt;action_dropdown&lt;br/&gt;add_button&lt;br/&gt;input_type&lt;br/&gt;main_layout&lt;/p&gt;&lt;hr size='1'/&gt;&lt;p style='margin:0px;text-align:start;margin-left:4px;;font-size:10.0px;font-family:Times New Roman,serif;color:#000000;'&gt;__init__(input_type, parent)&lt;br/&gt;_add_action(clicked)&lt;br/&gt;_valid_action_list()&lt;/p&gt;" style="verticalAlign=top;align=left;overflow=fill;html=1;rounded=0;shadow=0;comic=0;labelBackgroundColor=none;strokeColor=black;strokeWidth=1;fillColor=#ffffff;" parent="1" vertex="1"><mxGeometry x="1434.38" y="1878.1000000000001" width="173.8499999999999" height="175.20000000000005" as="geometry" /></mxCell><mxCell id="node10" value="&lt;p style='margin:0px;text-align:center;margin-top:4px;;font-size:10.0px;font-family:Times New Roman,serif;color:#000000;'&gt;common.BaseDialogUi&lt;/p&gt;&lt;hr size='1'/&gt;&lt;p style='margin:0px;text-align:start;margin-left:4px;;font-size:10.0px;font-family:Times New Roman,serif;color:#000000;'&gt;closed&lt;/p&gt;&lt;hr size='1'/&gt;&lt;p style='margin:0px;text-align:start;margin-left:4px;;font-size:10.0px;font-family:Times New Roman,serif;color:#000000;'&gt;__init__(parent)&lt;br/&gt;closeEvent(event)&lt;/p&gt;" style="verticalAlign=top;align=left;overflow=fill;html=1;rounded=0;shadow=0;comic=0;labelBackgroundColor=none;strokeColor=black;strokeWidth=1;fillColor=#ffffff;" parent="1" vertex="1"><mxGeometry x="1626.4" y="1920.1000000000001" width="147.80999999999995" height="91.20000000000005" as="geometry" /></mxCell><mxCell id="node11" value="&lt;p style='margin:0px;text-align:center;margin-top:4px;;font-size:10.0px;font-family:Times New Roman,serif;color:#000000;'&gt;common.ContainerViewTypes&lt;/p&gt;&lt;hr size='1'/&gt;&lt;p style='margin:0px;text-align:start;margin-left:4px;;font-size:10.0px;font-family:Times New Roman,serif;color:#000000;'&gt;to_enum(value)&lt;br/&gt;to_string(value)&lt;/p&gt;" style="verticalAlign=top;align=left;overflow=fill;html=1;rounded=0;shadow=0;comic=0;labelBackgroundColor=none;strokeColor=black;strokeWidth=1;fillColor=#ffffff;" parent="1" vertex="1"><mxGeometry x="1792.18" y="1920.5" width="188.24" height="90.40000000000009" as="geometry" /></mxCell><mxCell id="node12" value="&lt;p style='margin:0px;text-align:center;margin-top:4px;;font-size:10.0px;font-family:Times New Roman,serif;color:#000000;'&gt;enum.Enum&lt;/p&gt;&lt;hr size='1'/&gt;&lt;p style='margin:0px;text-align:start;margin-left:4px;;font-size:10.0px;font-family:Times New Roman,serif;color:#000000;'&gt;__dir__()&lt;br/&gt;__format__(format_spec)&lt;br/&gt;__hash__()&lt;br/&gt;__new__(cls, value)&lt;br/&gt;__reduce_ex__(proto)&lt;br/&gt;__repr__()&lt;br/&gt;__str__()&lt;br/&gt;_generate_next_value_(name, start, count, last_values)&lt;br/&gt;_missing_(cls, value)&lt;br/&gt;name()&lt;br/&gt;value()&lt;/p&gt;" style="verticalAlign=top;align=left;overflow=fill;html=1;rounded=0;shadow=0;comic=0;labelBackgroundColor=none;strokeColor=black;strokeWidth=1;fillColor=#ffffff;" parent="1" vertex="1"><mxGeometry x="1724.36" y="1321.9" width="323.8900000000001" height="241.5999999999999" as="geometry" /></mxCell><mxCell id="node13" value="&lt;p style='margin:0px;text-align:center;margin-top:4px;;font-size:10.0px;font-family:Times New Roman,serif;color:#000000;'&gt;common.DualSlider&lt;/p&gt;&lt;hr size='1'/&gt;&lt;p style='margin:0px;text-align:start;margin-left:4px;;font-size:10.0px;font-family:Times New Roman,serif;color:#000000;'&gt;LowerHandle : int&lt;br/&gt;UpperHandle : int&lt;br/&gt;_active_handle : NoneType, int&lt;br/&gt;_lower_position : int&lt;br/&gt;_range : list&lt;br/&gt;_upper_position : int&lt;br/&gt;sliderMoved&lt;br/&gt;sliderPressed&lt;br/&gt;sliderReleased&lt;br/&gt;valueChanged&lt;/p&gt;&lt;hr size='1'/&gt;&lt;p style='margin:0px;text-align:start;margin-left:4px;;font-size:10.0px;font-family:Times New Roman,serif;color:#000000;'&gt;__init__(parent)&lt;br/&gt;_constrain_value(handle, value)&lt;br/&gt;_get_common_option()&lt;br/&gt;_position_to_logical(pos)&lt;br/&gt;_width_to_logical(value)&lt;br/&gt;lowerPosition()&lt;br/&gt;minimumSizeHint()&lt;br/&gt;mouseMoveEvent(evt)&lt;br/&gt;mousePressEvent(evt)&lt;br/&gt;mouseReleaseEvent(evt)&lt;br/&gt;paintEvent(evt)&lt;br/&gt;positions()&lt;br/&gt;range()&lt;br/&gt;setLowerPosition(value)&lt;br/&gt;setPositions(lower, upper)&lt;br/&gt;setRange(min_val, max_val)&lt;br/&gt;setUpperPosition(value)&lt;br/&gt;sizeHint()&lt;br/&gt;upperPosition()&lt;/p&gt;" style="verticalAlign=top;align=left;overflow=fill;html=1;rounded=0;shadow=0;comic=0;labelBackgroundColor=none;strokeColor=black;strokeWidth=1;fillColor=#ffffff;" parent="1" vertex="1"><mxGeometry x="1998.51" y="1701.7" width="195.58999999999992" height="528.0000000000002" as="geometry" /></mxCell><mxCell id="node14" value="&lt;p style='margin:0px;text-align:center;margin-top:4px;;font-size:10.0px;font-family:Times New Roman,serif;color:#000000;'&gt;common.DynamicDoubleSpinBox&lt;/p&gt;&lt;hr size='1'/&gt;&lt;p style='margin:0px;text-align:start;margin-left:4px;;font-size:10.0px;font-family:Times New Roman,serif;color:#000000;'&gt;valid_chars&lt;/p&gt;&lt;hr size='1'/&gt;&lt;p style='margin:0px;text-align:start;margin-left:4px;;font-size:10.0px;font-family:Times New Roman,serif;color:#000000;'&gt;__init__(parent)&lt;br/&gt;validate(text, pos)&lt;/p&gt;" style="verticalAlign=top;align=left;overflow=fill;html=1;rounded=0;shadow=0;comic=0;labelBackgroundColor=none;strokeColor=black;strokeWidth=1;fillColor=#ffffff;" parent="1" vertex="1"><mxGeometry x="2212.28" y="1920.1000000000001" width="210.03999999999996" height="91.20000000000005" as="geometry" /></mxCell><mxCell id="node15" value="&lt;p style='margin:0px;text-align:center;margin-top:4px;;font-size:10.0px;font-family:Times New Roman,serif;color:#000000;'&gt;common.InputListenerWidget&lt;/p&gt;&lt;hr size='1'/&gt;&lt;p style='margin:0px;text-align:start;margin-left:4px;;font-size:10.0px;font-family:Times New Roman,serif;color:#000000;'&gt;_abort_timer&lt;br/&gt;_event_types&lt;br/&gt;_multi_key_storage : list&lt;br/&gt;_multi_keys : bool&lt;br/&gt;_return_kb_event : bool&lt;br/&gt;callback&lt;br/&gt;filter_func : NoneType&lt;br/&gt;main_layout&lt;/p&gt;&lt;hr size='1'/&gt;&lt;p style='margin:0px;text-align:start;margin-left:4px;;font-size:10.0px;font-family:Times New Roman,serif;color:#000000;'&gt;__init__(callback, event_types, return_kb_event, multi_keys, filter_func, parent)&lt;br/&gt;_joy_event_cb(event)&lt;br/&gt;_kb_event_cb(event)&lt;br/&gt;_mouse_event_cb(event)&lt;br/&gt;_valid_event_types_string()&lt;br/&gt;closeEvent(evt)&lt;/p&gt;" style="verticalAlign=top;align=left;overflow=fill;html=1;rounded=0;shadow=0;comic=0;labelBackgroundColor=none;strokeColor=black;strokeWidth=1;fillColor=#ffffff;" parent="1" vertex="1"><mxGeometry x="501.04" y="222.9000000000001" width="468.53000000000003" height="276.0" as="geometry" /></mxCell><mxCell id="node16" value="&lt;p style='margin:0px;text-align:center;margin-top:4px;;font-size:10.0px;font-family:Times New Roman,serif;color:#000000;'&gt;common.JoystickSelector&lt;/p&gt;&lt;hr size='1'/&gt;&lt;p style='margin:0px;text-align:start;margin-left:4px;;font-size:10.0px;font-family:Times New Roman,serif;color:#000000;'&gt;__init__(change_cb, valid_types, parent)&lt;br/&gt;_device_identifier(device)&lt;br/&gt;_format_device_name(device)&lt;br/&gt;_initialize()&lt;/p&gt;" style="verticalAlign=top;align=left;overflow=fill;html=1;rounded=0;shadow=0;comic=0;labelBackgroundColor=none;strokeColor=black;strokeWidth=1;fillColor=#ffffff;" parent="1" vertex="1"><mxGeometry x="503.62" y="1903.7" width="245.37" height="124.0" as="geometry" /></mxCell><mxCell id="node17" value="&lt;p style='margin:0px;text-align:center;margin-top:4px;;font-size:10.0px;font-family:Times New Roman,serif;color:#000000;'&gt;common.LeftRightPushButton&lt;/p&gt;&lt;hr size='1'/&gt;&lt;p style='margin:0px;text-align:start;margin-left:4px;;font-size:10.0px;font-family:Times New Roman,serif;color:#000000;'&gt;clicked_right&lt;/p&gt;&lt;hr size='1'/&gt;&lt;p style='margin:0px;text-align:start;margin-left:4px;;font-size:10.0px;font-family:Times New Roman,serif;color:#000000;'&gt;__init__(label, parent)&lt;br/&gt;mousePressEvent(event)&lt;/p&gt;" style="verticalAlign=top;align=left;overflow=fill;html=1;rounded=0;shadow=0;comic=0;labelBackgroundColor=none;strokeColor=black;strokeWidth=1;fillColor=#ffffff;" parent="1" vertex="1"><mxGeometry x="2440.16" y="1920.1000000000001" width="188.2800000000002" height="91.20000000000005" as="geometry" /></mxCell><mxCell id="node18" value="&lt;p style='margin:0px;text-align:center;margin-top:4px;;font-size:10.0px;font-family:Times New Roman,serif;color:#000000;'&gt;common.ModeWidget&lt;/p&gt;&lt;hr size='1'/&gt;&lt;p style='margin:0px;text-align:start;margin-left:4px;;font-size:10.0px;font-family:Times New Roman,serif;color:#000000;'&gt;label&lt;br/&gt;main_layout&lt;br/&gt;mode_changed&lt;br/&gt;mode_list : list&lt;br/&gt;profile : NoneType&lt;br/&gt;selector&lt;/p&gt;&lt;hr size='1'/&gt;&lt;p style='margin:0px;text-align:start;margin-left:4px;;font-size:10.0px;font-family:Times New Roman,serif;color:#000000;'&gt;__init__(parent)&lt;br/&gt;_create_widget()&lt;br/&gt;_inheritance_tree_to_labels(labels, tree, level)&lt;br/&gt;_mode_changed_cb(idx)&lt;br/&gt;populate_selector(profile_data, current_mode)&lt;/p&gt;" style="verticalAlign=top;align=left;overflow=fill;html=1;rounded=0;shadow=0;comic=0;labelBackgroundColor=none;strokeColor=black;strokeWidth=1;fillColor=#ffffff;" parent="1" vertex="1"><mxGeometry x="2646.08" y="1852.9" width="276.44000000000005" height="225.5999999999999" as="geometry" /></mxCell><mxCell id="node19" value="&lt;p style='margin:0px;text-align:center;margin-top:4px;;font-size:10.0px;font-family:Times New Roman,serif;color:#000000;'&gt;common.NoKeyboardPushButton&lt;/p&gt;&lt;hr size='1'/&gt;&lt;p style='margin:0px;text-align:start;margin-left:4px;;font-size:10.0px;font-family:Times New Roman,serif;color:#000000;'&gt;__init__()&lt;br/&gt;keyPressEvent(event)&lt;/p&gt;" style="verticalAlign=top;align=left;overflow=fill;html=1;rounded=0;shadow=0;comic=0;labelBackgroundColor=none;strokeColor=black;strokeWidth=1;fillColor=#ffffff;" parent="1" vertex="1"><mxGeometry x="2940.23" y="1920.5" width="206.1500000000001" height="90.40000000000009" as="geometry" /></mxCell><mxCell id="node20" value="&lt;p style='margin:0px;text-align:center;margin-top:4px;;font-size:10.0px;font-family:Times New Roman,serif;color:#000000;'&gt;common.VJoySelector&lt;/p&gt;&lt;hr size='1'/&gt;&lt;p style='margin:0px;text-align:start;margin-left:4px;;font-size:10.0px;font-family:Times New Roman,serif;color:#000000;'&gt;invalid_ids : dict&lt;/p&gt;&lt;hr size='1'/&gt;&lt;p style='margin:0px;text-align:start;margin-left:4px;;font-size:10.0px;font-family:Times New Roman,serif;color:#000000;'&gt;__init__(change_cb, valid_types, invalid_ids, parent)&lt;br/&gt;_device_identifier(device)&lt;br/&gt;_format_device_name(device)&lt;br/&gt;_initialize()&lt;/p&gt;" style="verticalAlign=top;align=left;overflow=fill;html=1;rounded=0;shadow=0;comic=0;labelBackgroundColor=none;strokeColor=black;strokeWidth=1;fillColor=#ffffff;" parent="1" vertex="1"><mxGeometry x="767.01" y="1903.3000000000002" width="314.5899999999999" height="124.79999999999995" as="geometry" /></mxCell><mxCell id="node22" value="&lt;p style='margin:0px;text-align:center;margin-top:4px;;font-size:10.0px;font-family:Times New Roman,serif;color:#000000;'&gt;threading.Timer&lt;/p&gt;&lt;hr size='1'/&gt;&lt;p style='margin:0px;text-align:start;margin-left:4px;;font-size:10.0px;font-family:Times New Roman,serif;color:#000000;'&gt;args : list, NoneType&lt;br/&gt;finished&lt;br/&gt;function&lt;br/&gt;interval&lt;br/&gt;kwargs : dict, NoneType&lt;/p&gt;&lt;hr size='1'/&gt;&lt;p style='margin:0px;text-align:start;margin-left:4px;;font-size:10.0px;font-family:Times New Roman,serif;color:#000000;'&gt;__init__(interval, function, args, kwargs)&lt;br/&gt;cancel()&lt;br/&gt;run()&lt;/p&gt;" style="verticalAlign=top;align=left;overflow=fill;html=1;rounded=0;shadow=0;comic=0;labelBackgroundColor=none;strokeColor=black;strokeWidth=1;fillColor=#ffffff;" parent="1" vertex="1"><mxGeometry x="517.22" y="779.5" width="246.16999999999996" height="175.20000000000005" as="geometry" /></mxCell><mxCell id="node23" value="&lt;p style='margin:0px;text-align:center;margin-top:4px;;font-size:10.0px;font-family:Times New Roman,serif;color:#000000;'&gt;threading._RLock&lt;/p&gt;&lt;hr size='1'/&gt;&lt;p style='margin:0px;text-align:start;margin-left:4px;;font-size:10.0px;font-family:Times New Roman,serif;color:#000000;'&gt;__enter__&lt;br/&gt;_block&lt;br/&gt;_count : int&lt;br/&gt;_owner : NoneType&lt;/p&gt;&lt;hr size='1'/&gt;&lt;p style='margin:0px;text-align:start;margin-left:4px;;font-size:10.0px;font-family:Times New Roman,serif;color:#000000;'&gt;__exit__(t, v, tb)&lt;br/&gt;__init__()&lt;br/&gt;__repr__()&lt;br/&gt;_acquire_restore(state)&lt;br/&gt;_is_owned()&lt;br/&gt;_release_save()&lt;br/&gt;acquire(blocking, timeout)&lt;br/&gt;release()&lt;/p&gt;" style="verticalAlign=top;align=left;overflow=fill;html=1;rounded=0;shadow=0;comic=0;labelBackgroundColor=none;strokeColor=black;strokeWidth=1;fillColor=#ffffff;" parent="1" vertex="1"><mxGeometry x="320.66" y="1844.5" width="165.28999999999996" height="242.4000000000001" as="geometry" /></mxCell></root></mxGraphModel>